<svg version="1.1" id="Layer_1" xmlns="http://www.w3.org/2000/svg" xmlns:xlink="http://www.w3.org/1999/xlink" x="0px" y="0px"
	 width="100%" viewBox="0 0 500 500" enable-background="new 0 0 500 500" xml:space="preserve">
<path fill="#000000" opacity="1.000000" stroke="none" 
	d="
M501.000000,188.000000 
	C501.000000,292.666656 501.000000,396.833282 501.000000,500.999939 
	C334.333405,500.999969 167.666794,500.999969 1.000145,501.000000 
	C1.000097,334.333435 1.000097,167.666870 1.000048,1.000235 
	C167.666519,1.000157 334.333038,1.000157 500.999786,1.000078 
	C501.000000,63.166668 501.000000,125.333336 501.000000,188.000000 
M41.999863,211.500000 
	C41.999863,271.489594 41.999702,331.479187 42.000782,391.468781 
	C42.000809,392.968445 41.758041,394.522247 42.061462,395.959412 
	C45.146027,410.569763 50.078068,424.403870 60.298252,435.692505 
	C73.851860,450.662994 90.706329,459.785553 110.996422,459.858459 
	C201.646683,460.184235 292.299042,459.885284 382.949982,460.095856 
	C401.340881,460.138580 417.864685,456.017578 432.450745,444.270447 
	C449.523376,430.520752 459.612213,412.729370 459.751923,391.205322 
	C460.339294,300.724365 460.055664,210.237259 459.882751,119.752808 
	C459.870422,113.292305 458.573853,106.750786 457.200897,100.392365 
	C453.435028,82.951736 443.317993,69.264481 429.702515,58.466595 
	C416.325134,47.857582 400.817535,41.975273 383.381744,41.982555 
	C293.896790,42.019924 204.411758,41.957264 114.927055,42.106632 
	C109.607834,42.115509 104.089272,43.024220 99.013786,44.624985 
	C87.054146,48.396946 76.298859,54.296234 67.042358,63.136757 
	C50.863277,78.588783 42.273224,97.259529 42.069195,119.515930 
	C41.791191,149.841629 41.999863,180.171768 41.999863,211.500000 
z"/>
<path fill="#FFFFFF" opacity="1.000000" stroke="none" 
	d="
M41.999863,211.000000 
	C41.999863,180.171768 41.791191,149.841629 42.069195,119.515930 
	C42.273224,97.259529 50.863277,78.588783 67.042358,63.136757 
	C76.298859,54.296234 87.054146,48.396946 99.013786,44.624985 
	C104.089272,43.024220 109.607834,42.115509 114.927055,42.106632 
	C204.411758,41.957264 293.896790,42.019924 383.381744,41.982555 
	C400.817535,41.975273 416.325134,47.857582 429.702515,58.466595 
	C443.317993,69.264481 453.435028,82.951736 457.200897,100.392365 
	C458.573853,106.750786 459.870422,113.292305 459.882751,119.752808 
	C460.055664,210.237259 460.339294,300.724365 459.751923,391.205322 
	C459.612213,412.729370 449.523376,430.520752 432.450745,444.270447 
	C417.864685,456.017578 401.340881,460.138580 382.949982,460.095856 
	C292.299042,459.885284 201.646683,460.184235 110.996422,459.858459 
	C90.706329,459.785553 73.851860,450.662994 60.298252,435.692505 
	C50.078068,424.403870 45.146027,410.569763 42.061462,395.959412 
	C41.758041,394.522247 42.000809,392.968445 42.000782,391.468781 
	C41.999702,331.479187 41.999863,271.489594 41.999863,211.000000 
M264.500000,450.000122 
	C304.989471,450.000122 345.479431,450.097748 385.967865,449.893494 
	C391.949158,449.863312 398.085297,449.022461 403.873230,447.503113 
	C432.622986,439.956085 449.724091,415.197784 449.860474,386.696167 
	C450.255066,304.219269 450.067902,221.739120 449.911987,139.260605 
	C449.893066,129.252884 448.716858,119.243912 447.991272,109.241745 
	C446.886993,94.019707 439.182159,81.918953 428.861847,71.542938 
	C415.719543,58.329678 398.994965,52.209133 380.719971,52.142010 
	C294.076721,51.823765 207.431595,51.932957 120.787422,52.074806 
	C108.353081,52.095161 96.411049,55.293552 85.784172,61.839870 
	C63.471489,75.584824 52.258434,96.224449 52.140476,122.044495 
	C51.762173,204.854813 51.934528,287.668060 52.087677,370.479828 
	C52.105564,380.153015 53.171860,389.838074 54.032898,399.492584 
	C55.222321,412.829132 62.269436,423.551300 71.314919,432.507843 
	C83.761726,444.832214 99.522072,450.029358 117.037666,450.014465 
	C165.858398,449.973022 214.679214,450.000122 264.500000,450.000122 
z"/>
<path fill="#000000" opacity="1.000000" stroke="none" 
	d="
M264.000000,450.000122 
	C214.679214,450.000122 165.858398,449.973022 117.037666,450.014465 
	C99.522072,450.029358 83.761726,444.832214 71.314919,432.507843 
	C62.269436,423.551300 55.222321,412.829132 54.032898,399.492584 
	C53.171860,389.838074 52.105564,380.153015 52.087677,370.479828 
	C51.934528,287.668060 51.762173,204.854813 52.140476,122.044495 
	C52.258434,96.224449 63.471489,75.584824 85.784172,61.839870 
	C96.411049,55.293552 108.353081,52.095161 120.787422,52.074806 
	C207.431595,51.932957 294.076721,51.823765 380.719971,52.142010 
	C398.994965,52.209133 415.719543,58.329678 428.861847,71.542938 
	C439.182159,81.918953 446.886993,94.019707 447.991272,109.241745 
	C448.716858,119.243912 449.893066,129.252884 449.911987,139.260605 
	C450.067902,221.739120 450.255066,304.219269 449.860474,386.696167 
	C449.724091,415.197784 432.622986,439.956085 403.873230,447.503113 
	C398.085297,449.022461 391.949158,449.863312 385.967865,449.893494 
	C345.479431,450.097748 304.989471,450.000122 264.000000,450.000122 
M225.130508,242.637131 
	C225.080505,240.474716 225.271393,238.274826 224.941711,236.155930 
	C222.688522,221.674744 220.424042,207.193588 217.924072,192.753845 
	C217.357620,189.482025 216.153473,185.973953 211.747604,186.032593 
	C207.679688,186.086716 206.437790,188.551773 205.878876,192.401581 
	C204.834656,199.594345 203.120712,206.691452 201.640945,213.819122 
	C198.548019,228.716888 195.426193,243.608658 192.210556,259.009033 
	C189.419403,250.388748 186.436569,242.114868 184.147720,233.653259 
	C183.210327,230.187805 181.214844,227.899597 178.341034,228.287888 
	C176.238098,228.572021 173.784424,231.168900 172.733948,233.338593 
	C170.358200,238.245514 168.913681,243.594879 166.746658,248.615936 
	C166.017014,250.306534 164.396332,252.621887 162.931961,252.822800 
	C153.196655,254.158463 143.383484,254.912933 133.616074,256.034271 
	C128.714691,256.596985 123.856277,257.533752 118.978432,258.301361 
	C118.827843,258.957214 118.677261,259.613037 118.526672,260.268890 
	C119.869934,261.179993 121.165344,262.797211 122.563919,262.891968 
	C135.184433,263.747253 147.831863,264.203430 160.453476,265.045288 
	C170.176071,265.693787 173.760971,261.246490 177.641708,253.153809 
	C178.396179,254.666138 179.363342,256.041992 179.798096,257.569366 
	C182.269302,266.251038 184.682678,274.950775 186.965149,283.683716 
	C187.832169,287.001099 189.601746,288.913879 193.121399,289.005432 
	C196.846802,289.102325 198.308182,286.783539 199.010147,283.589569 
	C199.289124,282.320190 199.730591,281.085449 199.989227,279.812805 
	C203.535568,262.362213 207.062851,244.907791 210.714386,226.863449 
	C211.300797,228.033463 211.842285,228.685745 211.956818,229.405945 
	C213.976944,242.108932 215.987793,254.813766 217.911713,267.531647 
	C219.666031,279.128265 221.264618,290.748505 223.025238,302.344147 
	C224.277664,310.592896 225.469482,318.862488 227.151169,327.027466 
	C227.673813,329.565033 228.130905,332.998779 232.347183,333.061951 
	C236.432144,333.123138 238.299423,331.130371 239.111816,327.402557 
	C240.666336,320.269318 242.474762,313.190521 243.975616,306.046661 
	C246.408142,294.468292 248.447006,282.799927 251.225189,271.308075 
	C251.734329,269.202026 254.779175,266.554565 256.977661,266.206970 
	C267.680420,264.514923 277.842133,261.360474 287.237671,256.080780 
	C302.423981,247.547012 314.882965,235.748398 325.905090,222.399216 
	C326.562500,221.603027 326.425751,219.011887 325.696930,218.398438 
	C321.500000,214.865753 317.013245,211.677399 312.318024,208.141418 
	C297.911652,223.296143 282.411682,236.388733 264.373535,246.323807 
	C261.985229,247.639221 260.559631,250.702545 257.935089,253.863358 
	C249.236877,254.498489 243.571884,258.211761 240.613602,266.970337 
	C238.968292,271.841614 238.180237,277.002380 237.005219,282.032562 
	C236.215103,285.415100 235.423920,288.797394 234.633194,292.179779 
	C234.169159,292.093811 233.705124,292.007874 233.241104,291.921906 
	C230.741150,275.533356 228.241196,259.144806 226.483231,243.026398 
	C230.801697,251.081940 234.375198,252.082031 242.616241,249.222031 
	C259.444153,243.381973 274.454742,234.613434 287.963196,223.197037 
	C294.724976,217.482483 301.089691,211.298096 308.134766,204.869202 
	C302.276611,200.396103 297.285797,196.585327 292.193756,192.697220 
	C288.949036,195.576462 285.791229,198.135956 282.910217,200.976196 
	C268.805145,214.881760 251.928497,224.324020 233.745132,231.660629 
	C226.163055,234.719833 226.128891,234.635162 225.130508,242.637131 
M382.999908,124.500000 
	C382.999908,115.622086 382.999908,106.744164 382.999908,96.394699 
	C356.463013,109.697868 331.171875,122.376541 304.854126,135.569855 
	C312.913605,139.215897 319.985413,142.415115 328.278656,146.166916 
	C317.985992,159.549240 308.057007,172.487213 298.086121,185.392822 
	C296.537781,187.396881 296.113495,188.778687 298.790405,190.402725 
	C302.518188,192.664276 305.821136,195.628098 309.557983,197.871429 
	C310.598511,198.496094 313.268433,198.219223 313.935272,197.369995 
	C319.825012,189.869385 325.550049,182.230804 331.084900,174.462814 
	C335.645691,168.061905 339.881958,161.429779 344.234009,154.941956 
	C345.720154,156.111862 346.937286,157.070007 349.072632,158.750992 
	C338.459045,173.697739 327.957733,188.486298 316.955200,203.980774 
	C321.606812,207.565826 326.695374,211.487610 332.414551,215.895401 
	C343.233582,200.376450 353.703766,185.357880 364.166077,170.350616 
	C370.146027,175.482742 376.023895,180.527237 382.999908,186.514206 
	C382.999908,165.004318 382.999908,145.252151 382.999908,124.500000 
M187.398483,322.036285 
	C196.665955,325.993713 205.933426,329.951172 215.200897,333.908630 
	C215.651993,333.410828 216.103073,332.913025 216.554153,332.415222 
	C215.705063,328.128876 213.995651,323.798187 214.213867,319.566895 
	C214.520798,313.615082 211.929794,311.765472 206.777481,309.768768 
	C192.449402,304.216187 180.041306,295.654419 170.605789,283.197266 
	C168.890381,280.932556 166.829529,277.544037 164.627777,277.291321 
	C157.861816,276.514740 150.950058,277.008514 143.546341,277.008514 
	C153.457993,297.169342 168.063583,311.482452 187.398483,322.036285 
M155.957245,208.369827 
	C158.664444,198.113602 163.975571,189.257172 170.406479,180.941849 
	C171.195633,179.921448 171.508179,177.406189 170.827988,176.564728 
	C167.319366,172.224319 163.415161,168.203720 158.776321,163.114075 
	C153.734756,171.032211 149.442841,177.462616 145.464386,184.081436 
	C134.925430,201.614838 132.106384,220.897018 133.099609,240.946915 
	C133.151169,241.987595 134.718857,243.878662 135.440231,243.813705 
	C141.027161,243.310608 146.579514,242.423309 150.655838,241.860306 
	C152.341873,230.337494 153.900620,219.684616 155.957245,208.369827 
M251.002594,326.709106 
	C250.682266,329.366882 250.361954,332.024658 249.962219,335.341370 
	C279.756958,332.645142 304.032898,320.260193 323.708618,299.794250 
	C319.028259,295.098724 314.650604,290.706848 310.218903,286.260742 
	C295.633270,300.257111 279.087494,311.429596 258.080048,314.449921 
	C254.975998,314.896179 252.406204,316.192383 252.635834,320.311035 
	C252.736526,322.117310 251.603638,323.992310 251.002594,326.709106 
M349.771057,257.006561 
	C351.815491,247.663895 354.685303,238.490524 354.076477,228.689331 
	C353.672211,222.181000 353.999847,215.627197 353.999847,207.892807 
	C352.165192,209.533844 351.262390,210.164307 350.580627,210.979645 
	C345.841766,216.647217 341.070465,222.291595 336.506073,228.097931 
	C335.576324,229.280670 335.237518,231.088272 335.039001,232.659943 
	C333.563080,244.342972 330.769196,255.607788 324.646423,265.812622 
	C321.512848,271.035370 318.201569,276.151581 314.830566,281.539734 
	C319.449219,285.784393 324.006042,289.972229 328.735291,294.318512 
	C330.431244,292.119659 331.734161,290.446106 333.020508,288.759949 
	C340.215454,279.328522 345.716614,269.008575 349.771057,257.006561 
M189.499512,164.000793 
	C201.959152,155.753876 215.702682,151.475723 230.788528,150.715408 
	C231.116776,145.555862 231.519791,140.389603 231.745056,135.215607 
	C231.867966,132.392136 230.896545,130.344757 227.465363,131.009750 
	C220.645157,132.331589 213.731293,133.306580 207.031067,135.084229 
	C190.129196,139.568451 175.519073,148.164001 162.843781,160.582001 
	C166.416321,164.080261 169.946304,167.170013 173.024567,170.658386 
	C175.878494,173.892532 178.117874,173.239319 180.918884,170.686966 
	C183.408417,168.418427 186.275909,166.564667 189.499512,164.000793 
M249.228134,132.000916 
	C246.777725,131.813599 244.247955,131.946274 241.895813,131.362839 
	C238.496429,130.519638 236.844604,131.232941 236.970642,135.001328 
	C237.098511,138.824570 237.186874,142.667419 236.943680,146.479416 
	C236.719620,149.991745 238.203705,150.557144 241.484131,151.177765 
	C250.468552,152.877518 259.724518,154.401672 268.060974,157.919617 
	C276.758179,161.589798 284.508179,167.504669 293.163940,172.735291 
	C296.115417,169.032837 299.616943,164.897049 302.752014,160.500000 
	C303.411804,159.574631 303.278931,156.828934 302.576691,156.378235 
	C293.815155,150.754944 285.249268,144.616547 275.879395,140.215103 
	C267.797791,136.418839 258.750427,134.678513 249.228134,132.000916 
M390.820831,394.721649 
	C395.174133,402.753937 400.866119,408.002075 411.211639,404.080536 
	C406.606812,398.163513 402.005188,392.250641 396.548035,385.238434 
	C401.179504,381.183380 405.615814,377.299194 410.262695,373.230621 
	C398.573547,368.134979 392.945343,376.427338 385.999695,383.610931 
	C385.999695,378.287048 385.999725,374.029999 385.999725,369.772949 
	C385.999725,359.479889 385.999634,359.478882 375.802338,360.072510 
	C375.672272,360.080078 375.551910,360.253571 375.354126,360.405640 
	C375.354126,375.214478 375.354126,390.076660 375.354126,404.650146 
	C379.124817,404.650146 382.537018,404.650146 386.002228,404.650146 
	C386.002228,402.135223 385.447296,399.755157 386.175751,397.871399 
	C386.770782,396.332672 388.898041,395.386444 390.820831,394.721649 
M104.524246,393.017792 
	C106.202240,396.952393 107.880226,400.886993 109.634247,404.999878 
	C112.384445,404.999878 115.245209,405.283295 118.006393,404.881836 
	C119.413811,404.677185 121.289970,403.536804 121.845131,402.315338 
	C125.089813,395.176056 127.970917,387.872589 131.044724,380.654358 
	C133.475632,374.945831 136.007065,369.280121 138.671127,363.190186 
	C136.638458,363.033569 135.484772,363.014618 134.353577,362.845337 
	C129.669495,362.144531 126.626526,363.360718 124.838287,368.416687 
	C122.251648,375.729980 118.719040,382.708679 115.242271,390.621521 
	C111.100739,380.895813 107.250389,371.853912 103.490959,363.025513 
	C99.439812,363.025513 95.816177,363.025513 91.371765,363.025513 
	C93.711731,368.267731 95.896164,373.032562 97.970497,377.844818 
	C100.049850,382.668732 102.019325,387.540009 104.524246,393.017792 
M183.999924,394.632019 
	C183.587524,399.289886 185.690750,402.452820 189.844650,404.343994 
	C194.177673,406.316711 198.547531,406.715088 202.979507,404.579193 
	C203.883270,404.143677 204.952133,403.579956 205.858276,403.704681 
	C209.134598,404.155579 212.374008,404.874786 216.000107,405.563477 
	C216.000107,398.122650 215.945038,391.825317 216.015915,385.529388 
	C216.083908,379.489105 213.551971,374.511475 207.806488,373.190765 
	C202.411102,371.950531 196.329590,371.685547 190.958252,372.859467 
	C184.255753,374.324341 184.435333,375.150299 187.592194,381.269531 
	C187.881287,381.829895 188.190186,382.380005 188.481384,382.919189 
	C201.024628,378.698151 202.561127,378.898560 204.337021,384.999939 
	C201.161346,384.999939 197.973297,384.720062 194.852783,385.060059 
	C188.938553,385.704437 184.477707,387.671783 183.999924,394.632019 
M326.707458,405.000549 
	C328.330353,405.000549 329.953247,405.000549 332.000549,405.000549 
	C332.000549,398.229095 332.011444,391.787720 331.997406,385.346436 
	C331.983917,379.167450 329.310791,374.078888 323.358612,372.775696 
	C318.283112,371.664490 312.691742,372.489441 307.388580,373.037872 
	C305.164459,373.267883 303.095093,374.993744 300.575378,376.225281 
	C302.602417,379.104065 304.122742,381.263275 305.581726,383.335297 
	C315.058990,378.230896 317.514496,378.487091 321.086914,384.999908 
	C317.570953,384.999908 314.315613,384.831940 311.083160,385.032532 
	C302.591492,385.559540 297.791412,392.915894 300.937897,400.000732 
	C302.525177,403.574768 311.168549,407.095764 314.635498,405.833344 
	C318.437927,404.448761 321.970886,403.752228 326.707458,405.000549 
M265.468964,362.857697 
	C256.369171,362.857697 247.269379,362.857697 238.142365,362.857697 
	C238.142365,366.079437 238.142365,368.935760 238.142365,372.157562 
	C242.605301,372.157562 246.686203,372.157562 251.111694,372.157562 
	C251.111694,383.254822 251.111694,393.981750 251.111694,404.764160 
	C254.886917,404.764160 258.285675,404.764160 262.050598,404.764160 
	C262.050598,393.808197 262.050598,383.080414 262.050598,371.985596 
	C265.864105,371.985596 269.578278,372.800720 272.706757,371.794617 
	C277.402039,370.284637 274.177216,366.138672 274.866241,362.857697 
	C271.736267,362.857697 269.097809,362.857697 265.468964,362.857697 
M366.160309,374.012421 
	C359.304138,371.030365 352.382935,370.575745 345.637115,374.108063 
	C339.350677,377.399872 335.460358,385.035553 337.137573,391.427185 
	C339.658813,401.035431 343.838959,404.073578 354.493347,405.916504 
	C361.242828,407.083984 368.153809,402.851837 371.137085,396.264862 
	C368.519257,394.947113 365.884491,393.620850 363.198029,392.268555 
	C362.991028,392.417053 362.684113,392.568420 362.467346,392.803040 
	C358.873108,396.693573 353.484680,397.606812 350.388397,394.837158 
	C347.276978,392.053955 347.097931,386.271179 350.017914,382.872375 
	C353.083801,379.303772 356.193939,379.565430 361.284576,383.549530 
	C362.049408,384.148102 363.609741,384.401581 364.493408,384.046539 
	C366.799103,383.120056 368.933563,381.767395 371.631500,380.318848 
	C369.853180,378.085693 368.361908,376.212982 366.160309,374.012421 
M160.999878,383.725403 
	C160.999954,387.711884 161.082779,391.700562 160.978333,395.684296 
	C160.857925,400.277740 163.535706,402.990509 167.256241,404.660858 
	C172.303696,406.926941 177.253693,405.933960 181.999329,403.428741 
	C181.152405,400.828949 180.366714,398.417114 179.563522,395.951569 
	C178.367996,396.056244 177.258438,395.869843 176.439911,396.273529 
	C172.651672,398.141998 171.437500,395.415802 171.127472,392.837646 
	C170.663528,388.979553 171.006897,385.024384 171.006897,380.759766 
	C174.389511,380.759766 177.137482,380.759766 179.858994,380.759766 
	C180.144501,373.165436 180.144501,373.165436 171.809128,371.535492 
	C170.966934,368.872223 170.733658,364.854858 169.385742,364.437531 
	C163.425903,362.592194 159.226044,364.239807 161.117935,371.847961 
	C159.049973,371.969330 157.640213,372.052063 156.080185,372.143616 
	C156.080185,375.250671 156.080185,377.980835 156.080185,379.830292 
	C158.137161,381.061646 159.567062,381.917633 160.999878,383.725403 
M232.103378,360.032593 
	C229.168076,360.032593 226.232773,360.032593 223.190353,360.032593 
	C223.190353,375.181061 223.190353,389.889374 223.190353,404.999695 
	C225.152557,404.999695 226.955154,404.816559 228.707031,405.036774 
	C232.686996,405.537048 234.222214,404.292755 234.105637,399.940491 
	C233.794388,388.321106 234.039032,376.687622 233.952515,365.060547 
	C233.941010,363.515015 233.290268,361.974213 232.103378,360.032593 
M277.000305,377.602448 
	C277.000305,386.689850 277.000305,395.777252 277.000305,404.682068 
	C281.040649,404.682068 284.446930,404.682068 287.999847,404.682068 
	C287.999847,399.716797 287.671631,395.037476 288.103027,390.429260 
	C288.452118,386.700165 288.495605,381.945770 294.147705,382.049103 
	C298.727875,382.132782 299.589081,379.838776 299.018860,376.021057 
	C298.830963,374.762939 298.867493,373.471283 298.768524,371.560028 
	C294.948944,372.176971 291.518982,373.188263 288.098755,373.156464 
	C284.594147,373.123871 281.099060,372.070160 277.000305,371.359436 
	C277.000305,373.736969 277.000305,375.182281 277.000305,377.602448 
M141.000336,390.497498 
	C141.000336,395.266724 141.000336,400.035919 141.000336,404.709045 
	C144.984955,404.709045 148.392303,404.709045 151.712097,404.709045 
	C151.712097,393.669922 151.712097,382.923828 151.712097,372.000336 
	C149.609680,372.000336 147.767303,372.198334 145.983185,371.960114 
	C141.965546,371.423645 140.609711,373.007904 140.927170,377.005554 
	C141.255951,381.146057 141.000336,385.332916 141.000336,390.497498 
M152.292175,360.493164 
	C150.729874,359.543640 149.220901,357.913177 147.594223,357.785797 
	C144.159241,357.516785 140.721451,359.027069 140.335434,362.634735 
	C140.126801,364.584625 142.048019,367.817627 143.877640,368.731506 
	C149.265839,371.422943 153.204834,367.819489 152.292175,360.493164 
z"/>
<path fill="#FDFEFD" opacity="1.000000" stroke="none" 
	d="
M225.741241,242.756241 
	C228.241196,259.144806 230.741150,275.533356 233.241104,291.921906 
	C233.705124,292.007874 234.169159,292.093811 234.633194,292.179779 
	C235.423920,288.797394 236.215103,285.415100 237.005219,282.032562 
	C238.180237,277.002380 238.968292,271.841614 240.613602,266.970337 
	C243.571884,258.211761 249.236877,254.498489 257.935089,253.863358 
	C260.559631,250.702545 261.985229,247.639221 264.373535,246.323807 
	C282.411682,236.388733 297.911652,223.296143 312.318024,208.141418 
	C317.013245,211.677399 321.500000,214.865753 325.696930,218.398438 
	C326.425751,219.011887 326.562500,221.603027 325.905090,222.399216 
	C314.882965,235.748398 302.423981,247.547012 287.237671,256.080780 
	C277.842133,261.360474 267.680420,264.514923 256.977661,266.206970 
	C254.779175,266.554565 251.734329,269.202026 251.225189,271.308075 
	C248.447006,282.799927 246.408142,294.468292 243.975616,306.046661 
	C242.474762,313.190521 240.666336,320.269318 239.111816,327.402557 
	C238.299423,331.130371 236.432144,333.123138 232.347183,333.061951 
	C228.130905,332.998779 227.673813,329.565033 227.151169,327.027466 
	C225.469482,318.862488 224.277664,310.592896 223.025238,302.344147 
	C221.264618,290.748505 219.666031,279.128265 217.911713,267.531647 
	C215.987793,254.813766 213.976944,242.108932 211.956818,229.405945 
	C211.842285,228.685745 211.300797,228.033463 210.714386,226.863449 
	C207.062851,244.907791 203.535568,262.362213 199.989227,279.812805 
	C199.730591,281.085449 199.289124,282.320190 199.010147,283.589569 
	C198.308182,286.783539 196.846802,289.102325 193.121399,289.005432 
	C189.601746,288.913879 187.832169,287.001099 186.965149,283.683716 
	C184.682678,274.950775 182.269302,266.251038 179.798096,257.569366 
	C179.363342,256.041992 178.396179,254.666138 177.641708,253.153809 
	C173.760971,261.246490 170.176071,265.693787 160.453476,265.045288 
	C147.831863,264.203430 135.184433,263.747253 122.563919,262.891968 
	C121.165344,262.797211 119.869934,261.179993 118.526672,260.268890 
	C118.677261,259.613037 118.827843,258.957214 118.978432,258.301361 
	C123.856277,257.533752 128.714691,256.596985 133.616074,256.034271 
	C143.383484,254.912933 153.196655,254.158463 162.931961,252.822800 
	C164.396332,252.621887 166.017014,250.306534 166.746658,248.615936 
	C168.913681,243.594879 170.358200,238.245514 172.733948,233.338593 
	C173.784424,231.168900 176.238098,228.572021 178.341034,228.287888 
	C181.214844,227.899597 183.210327,230.187805 184.147720,233.653259 
	C186.436569,242.114868 189.419403,250.388748 192.210556,259.009033 
	C195.426193,243.608658 198.548019,228.716888 201.640945,213.819122 
	C203.120712,206.691452 204.834656,199.594345 205.878876,192.401581 
	C206.437790,188.551773 207.679688,186.086716 211.747604,186.032593 
	C216.153473,185.973953 217.357620,189.482025 217.924072,192.753845 
	C220.424042,207.193588 222.688522,221.674744 224.941711,236.155930 
	C225.271393,238.274826 225.080505,240.474716 225.478134,242.741455 
	C225.825760,242.845764 225.741241,242.756241 225.741241,242.756241 
z"/>
<path fill="#FFFFFF" opacity="1.000000" stroke="none" 
	d="
M382.999908,125.000000 
	C382.999908,145.252151 382.999908,165.004318 382.999908,186.514206 
	C376.023895,180.527237 370.146027,175.482742 364.166077,170.350616 
	C353.703766,185.357880 343.233582,200.376450 332.414551,215.895401 
	C326.695374,211.487610 321.606812,207.565826 316.955200,203.980774 
	C327.957733,188.486298 338.459045,173.697739 349.072632,158.750992 
	C346.937286,157.070007 345.720154,156.111862 344.234009,154.941956 
	C339.881958,161.429779 335.645691,168.061905 331.084900,174.462814 
	C325.550049,182.230804 319.825012,189.869385 313.935272,197.369995 
	C313.268433,198.219223 310.598511,198.496094 309.557983,197.871429 
	C305.821136,195.628098 302.518188,192.664276 298.790405,190.402725 
	C296.113495,188.778687 296.537781,187.396881 298.086121,185.392822 
	C308.057007,172.487213 317.985992,159.549240 328.278656,146.166916 
	C319.985413,142.415115 312.913605,139.215897 304.854126,135.569855 
	C331.171875,122.376541 356.463013,109.697868 382.999908,96.394699 
	C382.999908,106.744164 382.999908,115.622086 382.999908,125.000000 
z"/>
<path fill="#FFFFFF" opacity="1.000000" stroke="none" 
	d="
M225.870865,242.887650 
	C226.128891,234.635162 226.163055,234.719833 233.745132,231.660629 
	C251.928497,224.324020 268.805145,214.881760 282.910217,200.976196 
	C285.791229,198.135956 288.949036,195.576462 292.193756,192.697220 
	C297.285797,196.585327 302.276611,200.396103 308.134766,204.869202 
	C301.089691,211.298096 294.724976,217.482483 287.963196,223.197037 
	C274.454742,234.613434 259.444153,243.381973 242.616241,249.222031 
	C234.375198,252.082031 230.801697,251.081940 226.112244,242.891327 
	C225.741241,242.756241 225.825760,242.845764 225.870865,242.887650 
z"/>
<path fill="#FFFFFF" opacity="1.000000" stroke="none" 
	d="
M187.022018,322.002502 
	C168.063583,311.482452 153.457993,297.169342 143.546341,277.008514 
	C150.950058,277.008514 157.861816,276.514740 164.627777,277.291321 
	C166.829529,277.544037 168.890381,280.932556 170.605789,283.197266 
	C180.041306,295.654419 192.449402,304.216187 206.777481,309.768768 
	C211.929794,311.765472 214.520798,313.615082 214.213867,319.566895 
	C213.995651,323.798187 215.705063,328.128876 216.554153,332.415222 
	C216.103073,332.913025 215.651993,333.410828 215.200897,333.908630 
	C205.933426,329.951172 196.665955,325.993713 187.022018,322.002502 
z"/>
<path fill="#FFFFFF" opacity="1.000000" stroke="none" 
	d="
M155.708313,208.700775 
	C153.900620,219.684616 152.341873,230.337494 150.655838,241.860306 
	C146.579514,242.423309 141.027161,243.310608 135.440231,243.813705 
	C134.718857,243.878662 133.151169,241.987595 133.099609,240.946915 
	C132.106384,220.897018 134.925430,201.614838 145.464386,184.081436 
	C149.442841,177.462616 153.734756,171.032211 158.776321,163.114075 
	C163.415161,168.203720 167.319366,172.224319 170.827988,176.564728 
	C171.508179,177.406189 171.195633,179.921448 170.406479,180.941849 
	C163.975571,189.257172 158.664444,198.113602 155.708313,208.700775 
z"/>
<path fill="#FFFFFF" opacity="1.000000" stroke="none" 
	d="
M251.016739,326.272614 
	C251.603638,323.992310 252.736526,322.117310 252.635834,320.311035 
	C252.406204,316.192383 254.975998,314.896179 258.080048,314.449921 
	C279.087494,311.429596 295.633270,300.257111 310.218903,286.260742 
	C314.650604,290.706848 319.028259,295.098724 323.708618,299.794250 
	C304.032898,320.260193 279.756958,332.645142 249.962219,335.341370 
	C250.361954,332.024658 250.682266,329.366882 251.016739,326.272614 
z"/>
<path fill="#FFFFFF" opacity="1.000000" stroke="none" 
	d="
M349.538025,257.346588 
	C345.716614,269.008575 340.215454,279.328522 333.020508,288.759949 
	C331.734161,290.446106 330.431244,292.119659 328.735291,294.318512 
	C324.006042,289.972229 319.449219,285.784393 314.830566,281.539734 
	C318.201569,276.151581 321.512848,271.035370 324.646423,265.812622 
	C330.769196,255.607788 333.563080,244.342972 335.039001,232.659943 
	C335.237518,231.088272 335.576324,229.280670 336.506073,228.097931 
	C341.070465,222.291595 345.841766,216.647217 350.580627,210.979645 
	C351.262390,210.164307 352.165192,209.533844 353.999847,207.892807 
	C353.999847,215.627197 353.672211,222.181000 354.076477,228.689331 
	C354.685303,238.490524 351.815491,247.663895 349.538025,257.346588 
z"/>
<path fill="#FFFFFF" opacity="1.000000" stroke="none" 
	d="
M189.238052,164.264313 
	C186.275909,166.564667 183.408417,168.418427 180.918884,170.686966 
	C178.117874,173.239319 175.878494,173.892532 173.024567,170.658386 
	C169.946304,167.170013 166.416321,164.080261 162.843781,160.582001 
	C175.519073,148.164001 190.129196,139.568451 207.031067,135.084229 
	C213.731293,133.306580 220.645157,132.331589 227.465363,131.009750 
	C230.896545,130.344757 231.867966,132.392136 231.745056,135.215607 
	C231.519791,140.389603 231.116776,145.555862 230.788528,150.715408 
	C215.702682,151.475723 201.959152,155.753876 189.238052,164.264313 
z"/>
<path fill="#FEFEFE" opacity="1.000000" stroke="none" 
	d="
M249.679092,132.015076 
	C258.750427,134.678513 267.797791,136.418839 275.879395,140.215103 
	C285.249268,144.616547 293.815155,150.754944 302.576691,156.378235 
	C303.278931,156.828934 303.411804,159.574631 302.752014,160.500000 
	C299.616943,164.897049 296.115417,169.032837 293.163940,172.735291 
	C284.508179,167.504669 276.758179,161.589798 268.060974,157.919617 
	C259.724518,154.401672 250.468552,152.877518 241.484131,151.177765 
	C238.203705,150.557144 236.719620,149.991745 236.943680,146.479416 
	C237.186874,142.667419 237.098511,138.824570 236.970642,135.001328 
	C236.844604,131.232941 238.496429,130.519638 241.895813,131.362839 
	C244.247955,131.946274 246.777725,131.813599 249.679092,132.015076 
z"/>
<path fill="#FFFFFF" opacity="1.000000" stroke="none" 
	d="
M390.583374,394.449585 
	C388.898041,395.386444 386.770782,396.332672 386.175751,397.871399 
	C385.447296,399.755157 386.002228,402.135223 386.002228,404.650146 
	C382.537018,404.650146 379.124817,404.650146 375.354126,404.650146 
	C375.354126,390.076660 375.354126,375.214478 375.354126,360.405640 
	C375.551910,360.253571 375.672272,360.080078 375.802338,360.072510 
	C385.999634,359.478882 385.999725,359.479889 385.999725,369.772949 
	C385.999725,374.029999 385.999695,378.287048 385.999695,383.610931 
	C392.945343,376.427338 398.573547,368.134979 410.262695,373.230621 
	C405.615814,377.299194 401.179504,381.183380 396.548035,385.238434 
	C402.005188,392.250641 406.606812,398.163513 411.211639,404.080536 
	C400.866119,408.002075 395.174133,402.753937 390.583374,394.449585 
z"/>
<path fill="#FFFFFF" opacity="1.000000" stroke="none" 
	d="
M104.280609,392.704163 
	C102.019325,387.540009 100.049850,382.668732 97.970497,377.844818 
	C95.896164,373.032562 93.711731,368.267731 91.371765,363.025513 
	C95.816177,363.025513 99.439812,363.025513 103.490959,363.025513 
	C107.250389,371.853912 111.100739,380.895813 115.242271,390.621521 
	C118.719040,382.708679 122.251648,375.729980 124.838287,368.416687 
	C126.626526,363.360718 129.669495,362.144531 134.353577,362.845337 
	C135.484772,363.014618 136.638458,363.033569 138.671127,363.190186 
	C136.007065,369.280121 133.475632,374.945831 131.044724,380.654358 
	C127.970917,387.872589 125.089813,395.176056 121.845131,402.315338 
	C121.289970,403.536804 119.413811,404.677185 118.006393,404.881836 
	C115.245209,405.283295 112.384445,404.999878 109.634247,404.999878 
	C107.880226,400.886993 106.202240,396.952393 104.280609,392.704163 
z"/>
<path fill="#FFFFFF" opacity="1.000000" stroke="none" 
	d="
M184.000305,394.215393 
	C184.477707,387.671783 188.938553,385.704437 194.852783,385.060059 
	C197.973297,384.720062 201.161346,384.999939 204.337021,384.999939 
	C202.561127,378.898560 201.024628,378.698151 188.481384,382.919189 
	C188.190186,382.380005 187.881287,381.829895 187.592194,381.269531 
	C184.435333,375.150299 184.255753,374.324341 190.958252,372.859467 
	C196.329590,371.685547 202.411102,371.950531 207.806488,373.190765 
	C213.551971,374.511475 216.083908,379.489105 216.015915,385.529388 
	C215.945038,391.825317 216.000107,398.122650 216.000107,405.563477 
	C212.374008,404.874786 209.134598,404.155579 205.858276,403.704681 
	C204.952133,403.579956 203.883270,404.143677 202.979507,404.579193 
	C198.547531,406.715088 194.177673,406.316711 189.844650,404.343994 
	C185.690750,402.452820 183.587524,399.289886 184.000305,394.215393 
M197.382446,391.979584 
	C196.155655,392.874573 194.928864,393.769562 193.702072,394.664520 
	C193.722595,395.231079 193.743103,395.797607 193.763626,396.364166 
	C196.181488,396.904907 198.785233,398.244751 200.959610,397.738922 
	C202.769241,397.317932 204.074554,394.729095 205.603241,393.100494 
	C205.344742,392.654449 205.086258,392.208405 204.827759,391.762360 
	C202.578049,391.762360 200.328323,391.762360 197.382446,391.979584 
z"/>
<path fill="#FEFFFE" opacity="1.000000" stroke="none" 
	d="
M326.263885,405.000549 
	C321.970886,403.752228 318.437927,404.448761 314.635498,405.833344 
	C311.168549,407.095764 302.525177,403.574768 300.937897,400.000732 
	C297.791412,392.915894 302.591492,385.559540 311.083160,385.032532 
	C314.315613,384.831940 317.570953,384.999908 321.086914,384.999908 
	C317.514496,378.487091 315.058990,378.230896 305.581726,383.335297 
	C304.122742,381.263275 302.602417,379.104065 300.575378,376.225281 
	C303.095093,374.993744 305.164459,373.267883 307.388580,373.037872 
	C312.691742,372.489441 318.283112,371.664490 323.358612,372.775696 
	C329.310791,374.078888 331.983917,379.167450 331.997406,385.346436 
	C332.011444,391.787720 332.000549,398.229095 332.000549,405.000549 
	C329.953247,405.000549 328.330353,405.000549 326.263885,405.000549 
M320.591675,391.849731 
	C319.369446,391.564270 317.910400,390.714386 316.972900,391.107635 
	C314.843445,392.000946 312.913055,393.433441 311.089935,394.883392 
	C310.923767,395.015503 312.310669,397.816254 312.644836,397.748260 
	C315.331421,397.201721 317.986542,396.380737 320.524811,395.336273 
	C320.975922,395.150635 320.840240,393.539001 320.591675,391.849731 
z"/>
<path fill="#FFFFFF" opacity="1.000000" stroke="none" 
	d="
M265.964172,362.857697 
	C269.097809,362.857697 271.736267,362.857697 274.866241,362.857697 
	C274.177216,366.138672 277.402039,370.284637 272.706757,371.794617 
	C269.578278,372.800720 265.864105,371.985596 262.050598,371.985596 
	C262.050598,383.080414 262.050598,393.808197 262.050598,404.764160 
	C258.285675,404.764160 254.886917,404.764160 251.111694,404.764160 
	C251.111694,393.981750 251.111694,383.254822 251.111694,372.157562 
	C246.686203,372.157562 242.605301,372.157562 238.142365,372.157562 
	C238.142365,368.935760 238.142365,366.079437 238.142365,362.857697 
	C247.269379,362.857697 256.369171,362.857697 265.964172,362.857697 
z"/>
<path fill="#FEFEFE" opacity="1.000000" stroke="none" 
	d="
M366.515472,374.176361 
	C368.361908,376.212982 369.853180,378.085693 371.631500,380.318848 
	C368.933563,381.767395 366.799103,383.120056 364.493408,384.046539 
	C363.609741,384.401581 362.049408,384.148102 361.284576,383.549530 
	C356.193939,379.565430 353.083801,379.303772 350.017914,382.872375 
	C347.097931,386.271179 347.276978,392.053955 350.388397,394.837158 
	C353.484680,397.606812 358.873108,396.693573 362.467346,392.803040 
	C362.684113,392.568420 362.991028,392.417053 363.198029,392.268555 
	C365.884491,393.620850 368.519257,394.947113 371.137085,396.264862 
	C368.153809,402.851837 361.242828,407.083984 354.493347,405.916504 
	C343.838959,404.073578 339.658813,401.035431 337.137573,391.427185 
	C335.460358,385.035553 339.350677,377.399872 345.637115,374.108063 
	C352.382935,370.575745 359.304138,371.030365 366.515472,374.176361 
z"/>
<path fill="#FFFFFF" opacity="1.000000" stroke="none" 
	d="
M160.998413,383.249512 
	C159.567062,381.917633 158.137161,381.061646 156.080185,379.830292 
	C156.080185,377.980835 156.080185,375.250671 156.080185,372.143616 
	C157.640213,372.052063 159.049973,371.969330 161.117935,371.847961 
	C159.226044,364.239807 163.425903,362.592194 169.385742,364.437531 
	C170.733658,364.854858 170.966934,368.872223 171.809128,371.535492 
	C180.144501,373.165436 180.144501,373.165436 179.858994,380.759766 
	C177.137482,380.759766 174.389511,380.759766 171.006897,380.759766 
	C171.006897,385.024384 170.663528,388.979553 171.127472,392.837646 
	C171.437500,395.415802 172.651672,398.141998 176.439911,396.273529 
	C177.258438,395.869843 178.367996,396.056244 179.563522,395.951569 
	C180.366714,398.417114 181.152405,400.828949 181.999329,403.428741 
	C177.253693,405.933960 172.303696,406.926941 167.256241,404.660858 
	C163.535706,402.990509 160.857925,400.277740 160.978333,395.684296 
	C161.082779,391.700562 160.999954,387.711884 160.998413,383.249512 
z"/>
<path fill="#FFFFFF" opacity="1.000000" stroke="none" 
	d="
M232.519470,360.231903 
	C233.290268,361.974213 233.941010,363.515015 233.952515,365.060547 
	C234.039032,376.687622 233.794388,388.321106 234.105637,399.940491 
	C234.222214,404.292755 232.686996,405.537048 228.707031,405.036774 
	C226.955154,404.816559 225.152557,404.999695 223.190353,404.999695 
	C223.190353,389.889374 223.190353,375.181061 223.190353,360.032593 
	C226.232773,360.032593 229.168076,360.032593 232.519470,360.231903 
z"/>
<path fill="#FFFFFF" opacity="1.000000" stroke="none" 
	d="
M277.000305,377.115051 
	C277.000305,375.182281 277.000305,373.736969 277.000305,371.359436 
	C281.099060,372.070160 284.594147,373.123871 288.098755,373.156464 
	C291.518982,373.188263 294.948944,372.176971 298.768524,371.560028 
	C298.867493,373.471283 298.830963,374.762939 299.018860,376.021057 
	C299.589081,379.838776 298.727875,382.132782 294.147705,382.049103 
	C288.495605,381.945770 288.452118,386.700165 288.103027,390.429260 
	C287.671631,395.037476 287.999847,399.716797 287.999847,404.682068 
	C284.446930,404.682068 281.040649,404.682068 277.000305,404.682068 
	C277.000305,395.777252 277.000305,386.689850 277.000305,377.115051 
z"/>
<path fill="#FFFFFF" opacity="1.000000" stroke="none" 
	d="
M141.000336,389.998505 
	C141.000336,385.332916 141.255951,381.146057 140.927170,377.005554 
	C140.609711,373.007904 141.965546,371.423645 145.983185,371.960114 
	C147.767303,372.198334 149.609680,372.000336 151.712097,372.000336 
	C151.712097,382.923828 151.712097,393.669922 151.712097,404.709045 
	C148.392303,404.709045 144.984955,404.709045 141.000336,404.709045 
	C141.000336,400.035919 141.000336,395.266724 141.000336,389.998505 
z"/>
<path fill="#FDFDFD" opacity="1.000000" stroke="none" 
	d="
M152.543396,360.805664 
	C153.204834,367.819489 149.265839,371.422943 143.877640,368.731506 
	C142.048019,367.817627 140.126801,364.584625 140.335434,362.634735 
	C140.721451,359.027069 144.159241,357.516785 147.594223,357.785797 
	C149.220901,357.913177 150.729874,359.543640 152.543396,360.805664 
z"/>
<path fill="#020404" opacity="1.000000" stroke="none" 
	d="
M197.730530,391.870972 
	C200.328323,391.762360 202.578049,391.762360 204.827759,391.762360 
	C205.086258,392.208405 205.344742,392.654449 205.603241,393.100494 
	C204.074554,394.729095 202.769241,397.317932 200.959610,397.738922 
	C198.785233,398.244751 196.181488,396.904907 193.763626,396.364166 
	C193.743103,395.797607 193.722595,395.231079 193.702072,394.664520 
	C194.928864,393.769562 196.155655,392.874573 197.730530,391.870972 
z"/>
<path fill="#010707" opacity="1.000000" stroke="none" 
	d="
M320.783630,392.217773 
	C320.840240,393.539001 320.975922,395.150635 320.524811,395.336273 
	C317.986542,396.380737 315.331421,397.201721 312.644836,397.748260 
	C312.310669,397.816254 310.923767,395.015503 311.089935,394.883392 
	C312.913055,393.433441 314.843445,392.000946 316.972900,391.107635 
	C317.910400,390.714386 319.369446,391.564270 320.783630,392.217773 
z"/>
</svg>